FFmpeg version SVN-r25716, Copyright (c) 2000-2010 the FFmpeg developers  built on Nov 10 2010 12:23:18 with gcc 4.1.2 20080704 (Red Hat 4.1.2-48)  configuration: --enable-libmp3lame --enable-shared --disable-mmx --arch=x86_64  libavutil     50.33. 0 / 50.33. 0  libavcore      0.12. 1 /  0.12. 1  libavcodec    52.94. 4 / 52.94. 4  libavformat   52.84. 0 / 52.84. 0  libavdevice   52. 2. 2 / 52. 2. 2  libavfilter    1.59. 0 /  1.59. 0  libswscale     0.12. 0 /  0.12. 0Input #0, avi, from '/RAID10/data/converted_video_files/11970.avi':  Duration: 00:00:20.12, start: 0.000000, bitrate: 12169 kb/s    Stream #0.0: Video: mpeg4, yuv420p, 704x480 [PAR 1:1 DAR 22:15], 25 tbr, 29.97 tbn, 25 tbc[buffer @ 0x124aaca0] w:704 h:480 pixfmt:yuv420pOutput #0, flv, to '/RAID10/data/converted_video_files/11970.flv':  Metadata:    encoder         : Lavf52.84.0    Stream #0.0: Video: flv, yuv420p, 704x480 [PAR 1:1 DAR 22:15], q=2-31, 600 kb/s, 1k tbn, 24 tbcStream mapping:  Stream #0.0 -> #0.0Press [q] to stop encodingframe=   36 fps=  0 q=15.6 size=     309kB time=1.54 bitrate=1641.3kbits/s dup=0 drop=9    frame=   76 fps= 74 q=16.9 size=     439kB time=3.21 bitrate=1121.7kbits/s dup=0 drop=19    frame=  116 fps= 75 q=16.4 size=     556kB time=4.87 bitrate= 934.1kbits/s dup=0 drop=29    frame=  157 fps= 77 q=13.1 size=     685kB time=6.58 bitrate= 852.6kbits/s dup=0 drop=39    frame=  197 fps= 77 q=17.0 size=     800kB time=8.25 bitrate= 794.3kbits/s dup=0 drop=49    frame=  237 fps= 77 q=16.6 size=     914kB time=9.92 bitrate= 755.4kbits/s dup=0 drop=59    frame=  276 fps= 78 q=16.4 size=    1028kB time=11.54 bitrate= 729.9kbits/s dup=0 drop=69    frame=  316 fps= 78 q=15.6 size=    1157kB time=13.21 bitrate= 717.7kbits/s dup=0 drop=78    frame=  353 fps= 77 q=16.1 size=    1269kB time=14.75 bitrate= 704.8kbits/s dup=0 drop=88    frame=  388 fps= 76 q=15.8 size=    1377kB time=16.21 bitrate= 695.9kbits/s dup=0 drop=96    frame=  426 fps= 76 q=17.1 size=    1503kB time=17.79 bitrate= 691.9kbits/s dup=0 drop=106    frame=  463 fps= 76 q=18.1 size=    1611kB time=19.33 bitrate= 682.6kbits/s dup=0 drop=115    frame=  483 fps= 76 q=17.5 Lsize=    1675kB time=20.17 bitrate= 680.3kbits/s dup=0 drop=120    video:1667kB audio:0kB global headers:0kB muxing overhead 0.465000%